<svg id="Layer_1" data-name="Layer 1" xmlns="http://www.w3.org/2000/svg" viewBox="0 0 380.14 132.94"><defs><style>.cls-1{fill:#fff;}</style></defs><path class="cls-1" d="M126.06,61.59c1.24-1.44,2.11-4.35,1.32-10.11,0,0-.94-5.1-5.62-5.08s-9.27,2.18-10.6,7.62-3,17.82-4.7,22.85S103,86.22,102,91.8c-.44,1.14.6.72,1.23-1.3a202.61,202.61,0,0,0-4.83,20.88c-1.14,6.47-3.15,12.29-3.2,14.25s-.54,3.73-1.52.23-1.56-6.36-2.07-7.44-1-.09-1.68-2.44-3.08-10.56-3.08-10.56-1-.89-.55.79S90,120.52,90.82,124s1.71,6.58,1.23,7.17-1.26-.16-2.23-4.33-5-17.55-6.46-22.25S78.46,89.07,78,86.45s-1.47-5.51-1.8-5.52-1.27.17-.71,1.92,2,6.46,3.33,11.23a93.78,93.78,0,0,1,2.38,11.74c.34,2.61-.92-3.23-1.8-5.65s-1.71-6.52-2.91-9.28a57.19,57.19,0,0,1-2.93-8.48c-.61-2.48-.76-4.22-1.41-5,0,0-1.18-1-.71,1.85s3,10,3.78,14.78,4,14.52,6,22,8.1,28.9,8.82,32.39,5.44,6.81,7.85,1.26,5.17-15,9.19-31.82,10.05-34.33,12.64-41.75S124.82,63,126.06,61.59Z" transform="translate(-59.6 -21.86)"/><path class="cls-1" d="M62,69.7s-.7-1.29-1.38-1a1.74,1.74,0,0,0-1,1.84c.11.8,2,1.92,2.84,1.4S63.78,69.81,62,69.7Z" transform="translate(-59.6 -21.86)"/><path class="cls-1" d="M74.61,77.36c-.2.13-.3,1.41.57,1.22s.94-.25.63-1.19A3.57,3.57,0,0,0,74.61,77.36Z" transform="translate(-59.6 -21.86)"/><path class="cls-1" d="M76.64,73.2c.43,1.35,4.53,11.39,4.53,11.39.25.61.58.82.66.35a68.69,68.69,0,0,1-3.35-13.23c-.42-2.08-.8-2.76-1.75-2.25S76.21,71.85,76.64,73.2Z" transform="translate(-59.6 -21.86)"/><path class="cls-1" d="M73.65,75.53s-1.46-5.84-2.08-7.86-2.62-7.34-3.42-10,.48-3.19,1-4-.36-1.81-1-2-1.95.55-2.2,2.55,1.82,7.45,3.22,10.43S73,75,73,75C73.41,76.18,73.65,75.53,73.65,75.53Z" transform="translate(-59.6 -21.86)"/><path class="cls-1" d="M76.73,47.1c.48-.12,1.16-2.31.05-2.13,0,0-1.3-.17-1.53.7S76.25,47.22,76.73,47.1Z" transform="translate(-59.6 -21.86)"/><path class="cls-1" d="M148,93.91a51.64,51.64,0,0,1-5.56,3.54c-1.89.89-8.19,4.41-8.19,4.41s-2.1,1.08-1.2-2.63,1.41-8.44,3.51-9.73a58.77,58.77,0,0,1,10.73-4.61c3.36-1,5-1.46,6.45-4.37s1.9-6.88-1.72-6.25h-.27s-4.71,1.68-5,1.34.27-.08.28-.7-.53-.29-3,.68-13.1,6.18-15,8.27-2.6,5.14-2.76,9,.1,7.55.18,9.35c0,.55.1,1.52.17,2.71a27.16,27.16,0,0,0-5.67,3.43,26.79,26.79,0,0,0-3.5,3.79s0,.93,2.22-.81,3.89-3.3,4.9-3.68,1.7-.52,1.72,1,.53,2-.47,2.34a3.69,3.69,0,0,0-1.7,1.6s.18.71.93,0,1.67-1.1,1.3,5.71a70.26,70.26,0,0,0-.24,11c.4,5.55,0,7.28.67,8s1,0,1,0,.3,1.54.4,2.81-.45,1.92.16,1.81.76-1.18.82-3.32a60,60,0,0,1,.33-10.61c.7-4.05.7-6.66,1.23-6.65s.4.14.37,1.28a24.21,24.21,0,0,0,.57,3.82s1.14,0,1.18-1.64-.52-8.76-.19-11.35.38-4.46.38-4.46a4.69,4.69,0,0,1,1.49-.7c1-.31,1.6,0,1.84-1.62s1.07-2.91,3-4.26,6.45-4.58,7.34-5.43A6.45,6.45,0,0,0,148,93.91Z" transform="translate(-59.6 -21.86)"/><path class="cls-1" d="M132,127.63c-.06-.38-.3.16-.16.9s-.05.73-.21,1.56a13,13,0,0,0,.4,4.22,24.87,24.87,0,0,0,.31-4.4Z" transform="translate(-59.6 -21.86)"/><path class="cls-1" d="M171.32,87.09c-1-3.81-5.79-3.39-8.11-1.44a5,5,0,0,0-.87,6.34c.86,1.22,3.1.74,3.77,2.18s-.49,0-1.26.46.15,1.12.91,4.52-1,11-4.88,19.33-8,10.22-9.34,10.5-.68-1.22.36-1.91,1.18-1.13,1.19-1.48-.41.39-1-1.09-.6-6.33-.22-10.85a54.34,54.34,0,0,1,2.4-13.4c1.77-5.88,3.24-8,4-8.45s-.25-1.25-.6-1.26-1.88,2.36-3.27,5.66-1.63,3.92-2.22,4.17-.58-1.88-.26-3.88a42.08,42.08,0,0,1,3.77-10.41c2-3.74,6.13-6.7,7.2-6.94s2.06-.39,2.12-1.37-1.13-1.14-1.76-.93a3.54,3.54,0,0,0-1.27,1s-3,1.71-6.44,6.56-5.46,12.33-7.17,18.38a67.31,67.31,0,0,0-2.72,22c.3,9.49,3.15,9.51,7.81,9.27s7.89-3.41,11.35-8.22,4.93-10.56,6.7-19.19A44.8,44.8,0,0,0,171.32,87.09Z" transform="translate(-59.6 -21.86)"/><path class="cls-1" d="M206,123.57c-4.16-7.44-11.44-20.64-11.69-21.51s-1.39-1.37.48-2.39a17,17,0,0,0,8-13.29c.66-8.06-4.66-14.07-12.28-13.79s-13.44,1-14,1.86l.45.68s.32.74.92.42,1-.58,1.32.7a8.35,8.35,0,0,1-.72,4.86c-.7,1.31-1.93,2.48-1.76,3.89s1,1.49.57,4A94.19,94.19,0,0,1,175,102.85a124,124,0,0,0-3,15.41c-.65,4.32-.78,6.59-1.45,7s-.8,2.85-.49,3.46.72.75.47,2.61a39.43,39.43,0,0,0-.24,4.33s1.12.69,1.64-1.7a22.28,22.28,0,0,1,2.08-5.48c.48-.87.38-1.6.07-2.95s.22-3.73.46-5.6,1.33-2.37.94-.31-1,9.05-1.11,10a1.29,1.29,0,0,0,.77,1.29s.26.47,1.35-6.24,2-9,2.38-12.49a51.88,51.88,0,0,1,1.55-8.71c.5-1.19,1.52-2,1.47-2.83s-.45-.68-.49-1.75.44-1.52,2,.78,13.33,17.08,16,21.49,7.28,13.26,7.79,14.27.69,2,1.36,1.84,1-.64-.26-2.94-3.29-4.69-3.37-6.89,2.1,1.39,3.19,3.15,7.41,13.47,8,15,2.36,1.93,1.53,0S210.14,131,206,123.57ZM186.83,93.26c-1.13-.16-4.41.29-4.89.75s1.14-3.11,1.72-4.76,1.84-4.43,1.57-6.7a3.45,3.45,0,0,0-3.94-2.77c-.94.38-1-1.09-.68-2.22s2-2.35,4.6-2.49,7.43,1.72,9,3.69.26,3.14-.73,2.73a30.06,30.06,0,0,1-4.06-3.25c-.42-.38-.48.32-.35.53a35.35,35.35,0,0,1,3.85,3.63c1.36,1.7,1.56,4.31.68,7.63S188,93.42,186.83,93.26Z" transform="translate(-59.6 -21.86)"/><path class="cls-1" d="M176.32,133.68s-1.36-.66-2.14.17-.38,2.62.65,2.69,2.41-.38,2.31-1.5A1.47,1.47,0,0,0,176.32,133.68Z" transform="translate(-59.6 -21.86)"/><path class="cls-1" d="M269.14,46.86c.85-.2,1.12-.37.87,2.51s0,11.82.79,11.5.37-1.59,2-6.63,3.83-11.72,5-14.5,3-5.4,3.8-5.38.84,1.22-.21,3.27-6.1,14.8-6.1,14.8a19.42,19.42,0,0,0-1.19,7.71c0,.73.77-1.38,1.06-2.24s1.14-2.91,3.07-8.27a83.56,83.56,0,0,1,7.63-14.57c1.32-1.9,3.51-4.19,5-8.62s-4.07-5.57-7.25-3.78-5.58,6.94-6.48,10.92-4.14,16.45-5.16,19.9S271,55.8,271,55.8a38.89,38.89,0,0,1-.67-5.36,8.21,8.21,0,0,1,1.37-4.33,16.56,16.56,0,0,0,1.08-7.81c-.48-2.33-1.72-2.62-2.61-2.38s.69,1,.86,4.74-1.62,4.5-2.76,4.74-1.32-1.63-.6-1.88.93-1.67.33-2.57.58-1.68.1-3.91a4.16,4.16,0,0,0-6.16-2.73c-2.89,1.71-6.76,10.6-9.45,18.82a248.88,248.88,0,0,0-7.16,30.8c-1.26,8-2.35,8.66-2.31,6.89a147.75,147.75,0,0,1,3.42-16.2c.77-2.21,1.45-4.5,1-5s-.71,0-1.72,1.38S242.8,84.66,242,89.27s-6.71,26.89-7.33,30.35-1.35,4.42-1.89,4.4-2.7-9.59-4.21-13.28a20.61,20.61,0,0,1-1.32-8c-.07-1-1.21-1.54-1.45.85s3.39,10.59,5.27,17.49-.16,6.58-.9,7.54-1.36-2.61-1.9-5.92-2.06-6.9-2.51-10.12-2.4-10.92-2.45-12.79-.74-2.6-1.27-2.61-.77-1.44-1.5-4.22a65.52,65.52,0,0,0-2.14-6.91,55.58,55.58,0,0,1-2.29-12.92c-.16-1.7-1-2-1.56-1.61s-1.66-.31-2-1.58-.45-3.55.44-4.33.86-2.32.1-4.2-1.55-2-2.12-.72.3,4.08.3,4.08a11.83,11.83,0,0,0-.32,5.07c.27,2.48,1.67,3.71,3.21,9.62s4.94,20.06,6.57,26.24,3.77,27.6,5,33.95,4,6.86,5.91,5.66,4.81-7.27,6-10.18,4.38-15.29,6.14-21.74,8.05-23.57,9.6-28.51,9-26.46,11.17-31.88S268.29,47.06,269.14,46.86Z" transform="translate(-59.6 -21.86)"/><path class="cls-1" d="M275.86,69.54c0-.74-1.62-2.11-3.91-1s-6.8,5-8.72,7.2-1.45,2-1.27,2.71.27,0-1,9.39-1.77,20.58-2.26,24-1.43,6.71-1.29,9.25a33.78,33.78,0,0,1-.59,7.6,16,16,0,0,0,.28,4.95c1,1.63,1.17-1.44.92-2.31s.41-3.19,1.06-5.11.53-5.46.58-7.2a16.66,16.66,0,0,1,1.48-6c.84-1.78,1.46-2.23,1.72-1.77s-.15,3.41-.76,6.53-.48,6.06.05,6,.71-1.78.68-3.19.43-3.93.61-5.73,1.76-11.77,1.76-11.77c.28-3.06,5.9-25.36,7.52-28.79S275.91,70.28,275.86,69.54Z" transform="translate(-59.6 -21.86)"/><path class="cls-1" d="M306.28,84.25c0-.53,1.55-.77,1.64-1.44s.16-1.2.16-1.2.75-.52.49-.86.18-1.86.46-2.26.56-1.05-.55-5c-3.13-8.35-13.35-8.14-16.29-8s-8.6,2.19-8.6,2.19-.35.46.12.35c5.51-1.39,10.72-1.42,11.36-.67s.56,1.68-.86,2.38c-8.52,4.26-17.64,19.86-17.64,19.86-5.93,10.54-7.13,24.12-5.49,33.44s6.84,9.78,15.3,7.45,10.76-11.42,10.74-13.49a2.26,2.26,0,0,0-2.42-2.15s1.06-5.09-2.73-6.48c0,0-2,0-2.46.47s-.31,1.55.36,1.3a2.23,2.23,0,0,1,2.88.56c.9,1.27,1,6.39-2,9s-11.23,5.94-13.28.2a44.52,44.52,0,0,1,1-9.76c1.83-9.17,9.59-21,13.42-24.7s5.92-1.86,6.49-.64,2.74,2.47,4.23,1.84S306.26,84.77,306.28,84.25Zm-25.22,39.23c2.8.25,7.7.41,12.17-6.07.39-1,.93-1.21,1.23-1.24a1.66,1.66,0,0,0,.34.23c.2.07,1.08-.31.24,3.74s-7.4,7.76-12.8,7.3c-2.9-.25-4.28-2.57-4.66-6.08A4.7,4.7,0,0,0,281.06,123.47Z" transform="translate(-59.6 -21.86)"/><path class="cls-1" d="M330,59.46c.28-.31,1.19-.78,4-1.11a67.2,67.2,0,0,1,13.52.33c1.86.3,8.1,0,8.72.21s1.29,1.8,3.25,1.67,3.92-.08,4.34.73.35,4,3.93,2.94,6-2.61,7.16-5.34,1.38-5.48.6-6.48-.67-1.53-2.1-1.3-3.24,1.52-4.21.88-8.25-1.18-11.82-.91-11.94.6-15.23.52-9.43-.05-9.43-.05a19.73,19.73,0,0,1,.47-5.94c.11-.33.21-.66.32-1,1.25-3.62,3-7.58,3.71-9.88s-3.42-5.78-5.1-6.18-5.15,3.08-8,6.57-4.24,9.69-5.19,15.72c-.1.64-.25,1.48-.43,2.48-.29-.05-6.14-1.11-7.9-.28s-1,1.31-3.33,1.48-16.19,1.34-20.79,2.2c0,0-.16-.63-1,0s-.66,1.59,1,1.09,13.49-2.16,17.33-2.51,13.22-.23,13.7.34-.76,1.85-1.47,1.92-9.61-.15-11.93.33-3.42,1.7-1.73,1.56,15.28-1.49,14.91.38c-1.94,9.81-4.95,24.17-6.54,32-2.23,11.07-5,28-6.21,35.45S302,143.08,302,143.08c.72-.16,1.32-3.17,1.53-4.41a66.44,66.44,0,0,1,2-7.25c.57-1.5.85-5.59,1.2-9s2-13,2.23-14.9,1.45-1.21,2.59-.56.12,2.23-.45,3.91a3.64,3.64,0,0,0,0,2.85c-1,4.76-3.67,16.82-5.19,24.7-1.94,10-3.25,16.39-2.72,16.4s1.59.66,2.33-4.22c.69-4.53,4.45-28.2,6.38-35.83a10.39,10.39,0,0,0,1.12,1.05c-.54,4.1-2.32,17.69-2.68,19.94-.42,2.66-1.32,6.47-.16,6.67s1.56,0,1.5-2.19-.93-4.92.3-12.19c.89-5.27,1.58-9.93,1.9-12.1.6-.22,1-1.46,1.28-2.42a48.77,48.77,0,0,0,.34-6.58,41.38,41.38,0,0,1,1.8-8.14c.28-.53,1.09-1,1.21-2.28.6-2.83,3.36-13.62,4.7-17.51,1.13-3.28,5.4-15.47,6.7-19.2Z" transform="translate(-59.6 -21.86)"/><path class="cls-1" d="M356.18,70.8a3.75,3.75,0,0,0-.77-.41h0c-5.61-2.68-10.44,4-11.59,7.15-.89,2.47,1.11,4.86,2,5.81a3.32,3.32,0,0,0,.45.43h0c.95.8,2.46,2.17,1.47,9.61-1.2,9-8.63,17.95-13.46,22.54s-5.68-4.14-6.39-8.08,2.12-13.74,4.75-19.64,4.15-5.86,4.78-6.2.21-1.42-.78-.91c-3.35,2.14-7.16,12.64-8.28,14.75s-2.38-1,.2-8,7.06-12.11,11-14.59,6.53-1.35,6.53-1.35a.67.67,0,0,0,1-.42c-.61-1.21-3.22-2.84-9,.58s-11.28,13.7-14,24.85-.71,21.61,1.4,26.47,12.19,3.86,18.44-.62,11.29-14,14.63-30.44S358.89,72.73,356.18,70.8Z" transform="translate(-59.6 -21.86)"/><path class="cls-1" d="M342.19,89.5c1.25-.15,3.25-1.7,2.39-3.23,0,0-.92-.73-2.88.46S340.95,89.65,342.19,89.5Z" transform="translate(-59.6 -21.86)"/><path class="cls-1" d="M439.74,53.53c-.09-3.47-1.54-6.18-3.42-5.78s-3.83.08-6.59,3.84c0,0-4.44,6.83-4,7.82s1.12,1.63-1.1,4.87S416.76,79.58,415.54,82s-2.43,4.75-3.47,3.65-4.1-7-6.08-13.23a127.81,127.81,0,0,0-4.85-12.58s-.85-1.44-1.49-.93-1,1.22-.09,3.65a72.93,72.93,0,0,1,4,11.94c1.7,6.9,5.17,18,5.43,18.29s1.14.65-.07,2.85-6.08,15.61-8.2,22.05a122.65,122.65,0,0,1-5,12.43c-4.38-10.48-12-28.45-12.27-29.46-.37-1.28,1.45-1.77,4.36-3.43s8.55-5.6,9.3-17.13-8.39-14.56-14.35-13.9-19,5.21-19,5.21c-.9.31-1.16.84,0,1.2,1.5-1.43,3.45-1.65,2.49-1s-.55.85.72.42.66.42.66.42l-.54.39c-.54.39.59.42.92.49s2.63-1.14,3.37-1.25.18.94-.31,1.79-1.08,3-2.34,5.48-7.43,19.84-8.85,23.35-8.18,25.83-9,28.28-.74,2.92-.07,2.94,1-1.78,1.92-4.76,5.12-15.36,5.69-16.82.72.69,1.32.5.46.14.91-1.58a84.06,84.06,0,0,1,4.89-11.63c2.1-4.09,2.86-4.94,4.29-6.24s.1-1.53-.5-1.28-.15-1.88-.15-1.88,2.79-4.93,3.29-6.39.52-2.12,2.85-5.34,5.61-4.94,9.91-3.36,4.07,5.64,1.83,9.86-6.35,3-8.86,1.94-3.36.83-6.16,3.36-1,2.72-.15,3.34a4,4,0,0,1,1.22,1.83,10.19,10.19,0,0,0,3,5.55c2.29,2,15.3,29.55,15.3,29.55l2.31,4.51h0s-2.17,5.08-1.81,5,0,.71,1.1-1.22.84-1.4,1.26-.68-1.54,4.59-1.54,4.59.84,2,1.62-.67c.19-.64.61-1.87,1.2-3.47,1.46,2.82,2.81,5.39,3.06,5.73.58.82.66.15.48-.39s.41-.32.8.09a35.1,35.1,0,0,1,2.36,4.53c.57,1.28,1.07,0,1.07,0s-2.65-6.14-5.11-12.21l-.94-2.28c1.87-4.77,4.31-10.54,6.36-14.5,3.64-7,13-26.12,17.74-33.74s14.12-23.86,15.3-25A10.21,10.21,0,0,0,439.74,53.53Z" transform="translate(-59.6 -21.86)"/><path class="cls-1" d="M421.1,127.75s-1.61.32-2.68.6-2.32.17-2.06.53.16.58.7.51.73.91,1.18,1.05,1.46.26,1.05.6-1.44.45-1.09.73.51,1.08,1.35,1.37,2.47.91,3-.46S422.84,127.38,421.1,127.75Z" transform="translate(-59.6 -21.86)"/></svg>